<svg id="e562cdc7-44dd-4d0e-bb3f-f357edcc7085" data-name="ef2fad44-17ef-454b-bf22-163061c33fb0" xmlns="http://www.w3.org/2000/svg" xmlns:xlink="http://www.w3.org/1999/xlink" viewBox="0 0 77 77"><defs><mask id="a041e4b1-8029-4952-894b-79beb9e587ea" x="0" y="0" width="77" height="77" maskUnits="userSpaceOnUse"><g id="b43d6e84-5639-473c-ba7a-ba5c00b019c0" data-name="f41b53ab-79dc-4729-8c56-3c83ae6c3647"><g id="ecc85407-12bf-495c-bace-b736315fe7e0" data-name="b41b6fc0-f824-4a9f-81ff-ecbbee2ef792"><rect x="4" y="4" width="69" height="69" rx="10" style="fill:#c4c4c4"/></g></g></mask></defs><g style="mask:url(#a041e4b1-8029-4952-894b-79beb9e587ea)"><rect x="1" y="1" width="75" height="75" style="fill:#57ffc2"/><rect x="0.5" y="0.5" width="76" height="76" style="fill:none;stroke:#ccc"/><path d="M24.71,45c-.8,3.82-1.66,7.78-3.76,11.3-.37.63-.84,1.33-.65.28a3.59,3.59,0,0,1,1.42-2.45c4.7-3.69,10.12-7.07,13.73-11.28.34-.4,3.23-3.8,0-3-4.16,1-7.42,3.49-10,5.42-3.72,2.72-7.33,5.63-9.55,9-.47.71.39,1,1.63,1.1,2.23.22,4-.55,5.9-.89.73-.13,1.19-.15,1.47.26.4.57,3.12,0,3.56-.16a5.49,5.49,0,0,1,2.88-.46,9.3,9.3,0,0,0,3.92-.4c2.5-.54,4.76-1.31,7.38-1.71.68-.11.33.3.77.53" style="fill:none;stroke:#414047;stroke-linecap:round;stroke-width:3px"/><path d="M44.85,49l1.67,4.58,4.59-1.67,8.6-18.45-6.26-3ZM62,28.58a1.31,1.31,0,0,0-.63-1.73L57.44,25a1.31,1.31,0,0,0-1.73.63l-1.42,3.05,6.26,2.92Z" style="fill:#414047"/></g></svg>