<svg width="26" height="25" viewBox="0 0 26 25" fill="none" xmlns="http://www.w3.org/2000/svg">
<path d="M15.5643 3.40522C15.5643 2.67501 14.9726 2.08334 14.2424 2.08334H12.7205C11.9893 2.08334 11.3976 2.67501 11.3976 3.40522C11.3976 4.0073 10.9851 4.52397 10.4236 4.7448C10.3351 4.78022 10.2466 4.81772 10.1601 4.85522C9.60698 5.0948 8.94969 5.02189 8.5226 4.59584C8.27473 4.34815 7.93865 4.20901 7.58823 4.20901C7.23781 4.20901 6.90173 4.34815 6.65385 4.59584L5.57677 5.67293C5.32907 5.9208 5.18993 6.25688 5.18993 6.6073C5.18993 6.95772 5.32907 7.2938 5.57677 7.54168C6.00385 7.96876 6.07677 8.62501 5.8351 9.17918C5.79713 9.26639 5.76067 9.35425 5.72573 9.44272C5.50489 10.0042 4.98823 10.4167 4.38615 10.4167C3.65594 10.4167 3.06427 11.0083 3.06427 11.7386V13.2615C3.06427 13.9917 3.65594 14.5833 4.38615 14.5833C4.98823 14.5833 5.50489 14.9958 5.72573 15.5573C5.76115 15.6458 5.79865 15.7344 5.8351 15.8208C6.07573 16.374 6.00281 17.0313 5.57677 17.4583C5.32907 17.7062 5.18993 18.0423 5.18993 18.3927C5.18993 18.7431 5.32907 19.0792 5.57677 19.3271L6.65385 20.4042C6.90173 20.6519 7.23781 20.791 7.58823 20.791C7.93865 20.791 8.27473 20.6519 8.5226 20.4042C8.94969 19.9771 9.60594 19.9042 10.1601 20.1448C10.2466 20.1833 10.3351 20.2198 10.4236 20.2552C10.9851 20.4761 11.3976 20.9927 11.3976 21.5948C11.3976 22.325 11.9893 22.9167 12.7195 22.9167H14.2424C14.9726 22.9167 15.5643 22.325 15.5643 21.5948C15.5643 20.9927 15.9768 20.4761 16.5382 20.2542C16.6268 20.2198 16.7153 20.1833 16.8018 20.1458C17.3549 19.9042 18.0122 19.9781 18.4382 20.4042C18.561 20.527 18.7067 20.6244 18.8671 20.6909C19.0276 20.7573 19.1995 20.7915 19.3731 20.7915C19.5468 20.7915 19.7187 20.7573 19.8791 20.6909C20.0395 20.6244 20.1853 20.527 20.308 20.4042L21.3851 19.3271C21.6328 19.0792 21.7719 18.7431 21.7719 18.3927C21.7719 18.0423 21.6328 17.7062 21.3851 17.4583C20.958 17.0313 20.8851 16.375 21.1257 15.8208C21.1643 15.7344 21.2007 15.6458 21.2361 15.5573C21.457 14.9958 21.9736 14.5833 22.5757 14.5833C23.3059 14.5833 23.8976 13.9917 23.8976 13.2615V11.7396C23.8976 11.0094 23.3059 10.4177 22.5757 10.4177C21.9736 10.4177 21.457 10.0052 21.2351 9.44376C21.2002 9.35528 21.1637 9.26742 21.1257 9.18022C20.8861 8.62709 20.9591 7.9698 21.3851 7.54272C21.6328 7.29485 21.7719 6.95876 21.7719 6.60834C21.7719 6.25792 21.6328 5.92184 21.3851 5.67397L20.308 4.59689C20.0602 4.34919 19.7241 4.21005 19.3736 4.21005C19.0232 4.21005 18.6871 4.34919 18.4393 4.59689C18.0122 5.02397 17.3559 5.09689 16.8018 4.85626C16.7146 4.81793 16.6267 4.78112 16.5382 4.74584C15.9768 4.52397 15.5643 4.0073 15.5643 3.40626V3.40522Z" fill="#BEBEC2"/>
<path d="M17.6476 12.5C17.6476 13.6051 17.2086 14.6649 16.4272 15.4463C15.6458 16.2277 14.586 16.6667 13.4809 16.6667C12.3759 16.6667 11.3161 16.2277 10.5347 15.4463C9.75326 14.6649 9.31427 13.6051 9.31427 12.5C9.31427 11.3949 9.75326 10.3351 10.5347 9.55373C11.3161 8.77233 12.3759 8.33334 13.4809 8.33334C14.586 8.33334 15.6458 8.77233 16.4272 9.55373C17.2086 10.3351 17.6476 11.3949 17.6476 12.5Z" fill="#6F6E73"/>
</svg>
