<svg width="106" height="22" viewBox="0 0 106 22" fill="none" xmlns="http://www.w3.org/2000/svg">
<path d="M0.980957 6.38679C0.980957 5.56319 1.34261 4.78114 1.97014 4.24773L6.18121 0.668328C7.22956 -0.222775 8.76924 -0.222776 9.8176 0.668326L14.0287 4.24773C14.6562 4.78113 15.0179 5.56319 15.0179 6.38679V13.5107C15.0179 15.0612 13.7609 16.3181 12.2105 16.3181H3.78834C2.23786 16.3181 0.980957 15.0612 0.980957 13.5107V6.38679Z" fill="#B072FF"/>
<path d="M3.69824 8.40208C3.69824 7.57848 4.0599 6.79642 4.68743 6.26302L8.89849 2.68362C9.94685 1.79251 11.4865 1.79251 12.5349 2.68361L16.7459 6.26302C17.3735 6.79642 17.7351 7.57848 17.7351 8.40208V15.526C17.7351 17.0764 16.4782 18.3333 14.9278 18.3333H6.50562C4.95515 18.3333 3.69824 17.0764 3.69824 15.526V8.40208Z" fill="#33373B"/>
<path d="M21.7588 17.5248V4.88889H23.8735V10.2065H29.858V4.88889H31.964V17.5248H29.858V12.1896H23.8735V17.5248H21.7588Z" fill="#33373B"/>
<path d="M37.7323 17.788C36.7846 17.788 35.9569 17.5745 35.249 17.1475C34.5412 16.7204 33.9913 16.1325 33.5993 15.3837C33.2132 14.6291 33.0202 13.7633 33.0202 12.7863C33.0202 11.7918 33.2191 10.9202 33.6169 10.1714C34.0147 9.4226 34.5675 8.8376 35.2753 8.41641C35.9832 7.99521 36.8022 7.78461 37.7323 7.78461C38.6859 7.78461 39.5166 7.99814 40.2244 8.42518C40.9322 8.85223 41.4821 9.44307 41.8741 10.1977C42.266 10.9465 42.462 11.8094 42.462 12.7863C42.462 13.7691 42.2631 14.6378 41.8653 15.3925C41.4734 16.1413 40.9235 16.7292 40.2156 17.1562C39.5078 17.5774 38.68 17.788 37.7323 17.788ZM37.7323 15.8049C38.5747 15.8049 39.2006 15.5241 39.6101 14.9625C40.0196 14.4009 40.2244 13.6755 40.2244 12.7863C40.2244 11.8679 40.0167 11.1366 39.6014 10.5926C39.186 10.0427 38.563 9.76775 37.7323 9.76775C37.1649 9.76775 36.6969 9.89644 36.3283 10.1538C35.9656 10.4054 35.6965 10.7593 35.521 11.2156C35.3455 11.6661 35.2578 12.1896 35.2578 12.7863C35.2578 13.7048 35.4655 14.4389 35.8808 14.9888C36.302 15.5329 36.9192 15.8049 37.7323 15.8049Z" fill="#33373B"/>
<path d="M54.899 17.5248V11.7684C54.899 11.1191 54.7381 10.6131 54.4163 10.2504C54.0946 9.88182 53.6588 9.69755 53.1089 9.69755C52.7696 9.69755 52.4654 9.77652 52.1963 9.93447C51.9272 10.0866 51.7137 10.3147 51.5557 10.6189C51.3978 10.9173 51.3188 11.2741 51.3188 11.6895L50.3799 11.1366C50.374 10.4814 50.5203 9.90522 50.8186 9.40797C51.1228 8.90488 51.5323 8.51293 52.0471 8.23213C52.5619 7.95134 53.1352 7.81094 53.767 7.81094C54.8141 7.81094 55.6156 8.12683 56.1713 8.75863C56.7329 9.38457 57.0137 10.2094 57.0137 11.2332V17.5248H54.899ZM43.5003 17.5248V8.04786H45.3694V10.9875H45.6326V17.5248H43.5003ZM49.2128 17.5248V11.7948C49.2128 11.1337 49.0519 10.6189 48.7302 10.2504C48.4084 9.88182 47.9697 9.69755 47.4139 9.69755C46.8757 9.69755 46.4428 9.88182 46.1152 10.2504C45.7935 10.6189 45.6326 11.0986 45.6326 11.6895L44.6849 11.0577C44.6849 10.4434 44.837 9.89059 45.1412 9.3992C45.4454 8.9078 45.8549 8.52171 46.3697 8.24091C46.8904 7.95426 47.4724 7.81094 48.1159 7.81094C48.8238 7.81094 49.4146 7.96304 49.8885 8.26723C50.3682 8.56558 50.725 8.97508 50.959 9.49572C51.1989 10.0105 51.3188 10.5926 51.3188 11.2419V17.5248H49.2128Z" fill="#33373B"/>
<path d="M62.5792 17.788C61.6198 17.788 60.7774 17.5804 60.052 17.165C59.3266 16.7497 58.7592 16.1734 58.3497 15.4363C57.946 14.6993 57.7442 13.851 57.7442 12.8916C57.7442 11.8562 57.9431 10.9582 58.3409 10.1977C58.7387 9.43137 59.2915 8.8376 59.9994 8.41641C60.7072 7.99521 61.5262 7.78461 62.4564 7.78461C63.4392 7.78461 64.2728 8.01569 64.9572 8.47783C65.6475 8.93413 66.1594 9.58055 66.4928 10.4171C66.8263 11.2536 66.952 12.2393 66.8701 13.3742H64.7729V12.602C64.7671 11.5725 64.5857 10.8207 64.2289 10.3469C63.8721 9.87304 63.3105 9.63612 62.5441 9.63612C61.6783 9.63612 61.0348 9.90522 60.6136 10.4434C60.1924 10.9758 59.9818 11.7567 59.9818 12.7863C59.9818 13.7457 60.1924 14.4887 60.6136 15.0152C61.0348 15.5416 61.6491 15.8049 62.4564 15.8049C62.977 15.8049 63.4245 15.6908 63.7989 15.4627C64.1792 15.2287 64.4717 14.8923 64.6764 14.4536L66.7649 15.0854C66.4022 15.9394 65.8406 16.6034 65.0801 17.0773C64.3254 17.5511 63.4918 17.788 62.5792 17.788ZM59.3149 13.3742V11.7772H65.8347V13.3742H59.3149Z" fill="#33373B"/>
<path d="M67.9506 17.5248V4.88889H73.1716C73.2945 4.88889 73.4524 4.89474 73.6455 4.90644C73.8385 4.91229 74.017 4.92984 74.1808 4.95909C74.912 5.07023 75.5146 5.31301 75.9884 5.6874C76.4681 6.0618 76.822 6.53565 77.0502 7.10894C77.2842 7.67639 77.4012 8.30818 77.4012 9.00433C77.4012 9.69462 77.2842 10.3264 77.0502 10.8997C76.8162 11.4672 76.4593 11.9381 75.9796 12.3125C75.5058 12.6869 74.9062 12.9296 74.1808 13.0408C74.017 13.0642 73.8356 13.0817 73.6367 13.0934C73.4437 13.1051 73.2886 13.111 73.1716 13.111H70.0653V17.5248H67.9506ZM70.0653 11.1366H73.0839C73.2009 11.1366 73.3325 11.1308 73.4788 11.1191C73.625 11.1074 73.7596 11.084 73.8824 11.0489C74.2334 10.9611 74.5084 10.8061 74.7073 10.5838C74.912 10.3615 75.0553 10.11 75.1372 9.82917C75.225 9.54837 75.2689 9.27342 75.2689 9.00433C75.2689 8.73523 75.225 8.46028 75.1372 8.17948C75.0553 7.89284 74.912 7.63836 74.7073 7.41606C74.5084 7.19377 74.2334 7.03874 73.8824 6.95099C73.7596 6.91589 73.625 6.89542 73.4788 6.88957C73.3325 6.87787 73.2009 6.87202 73.0839 6.87202H70.0653V11.1366Z" fill="#33373B"/>
<path d="M80.6918 17.788C80.0073 17.788 79.4282 17.6593 78.9543 17.4019C78.4805 17.1387 78.1207 16.7906 77.875 16.3577C77.6352 15.9248 77.5152 15.448 77.5152 14.9274C77.5152 14.4711 77.5913 14.0616 77.7434 13.6989C77.8955 13.3304 78.1295 13.0145 78.4454 12.7512C78.7613 12.4821 79.1708 12.2628 79.6739 12.0931C80.0541 11.9703 80.4987 11.8591 81.0077 11.7597C81.5225 11.6602 82.0782 11.5695 82.6749 11.4876C83.2774 11.3999 83.9063 11.3063 84.5615 11.2068L83.8069 11.6368C83.8127 10.9816 83.6665 10.499 83.3681 10.1889C83.0698 9.8789 82.5667 9.72387 81.8588 9.72387C81.4318 9.72387 81.0194 9.82332 80.6216 10.0222C80.2238 10.2211 79.9459 10.5633 79.7879 11.0489L77.8575 10.4434C78.0915 9.64197 78.5361 8.99848 79.1912 8.51293C79.8523 8.02738 80.7415 7.78461 81.8588 7.78461C82.7012 7.78461 83.4412 7.92209 84.0789 8.19703C84.7224 8.47198 85.1992 8.92243 85.5092 9.54837C85.6788 9.88182 85.7812 10.224 85.8163 10.575C85.8514 10.9202 85.869 11.2975 85.869 11.707V17.5248H84.0175V15.4714L84.3246 15.8049C83.8975 16.4893 83.3974 16.9924 82.8241 17.3142C82.2566 17.6301 81.5459 17.788 80.6918 17.788ZM81.113 16.1032C81.5927 16.1032 82.0022 16.0184 82.3414 15.8488C82.6807 15.6791 82.9498 15.4714 83.1487 15.2258C83.3535 14.9801 83.491 14.749 83.5612 14.5325C83.6723 14.2634 83.7337 13.9563 83.7454 13.6112C83.763 13.2602 83.7718 12.9764 83.7718 12.76L84.4211 12.953C83.7835 13.0525 83.2365 13.1402 82.7802 13.2163C82.3239 13.2923 81.932 13.3655 81.6044 13.4357C81.2768 13.5 80.9872 13.5731 80.7356 13.655C80.4899 13.7428 80.2823 13.8452 80.1126 13.9622C79.943 14.0792 79.8113 14.2137 79.7177 14.3658C79.63 14.5179 79.5861 14.6963 79.5861 14.9011C79.5861 15.1351 79.6446 15.3427 79.7616 15.5241C79.8786 15.6996 80.0483 15.84 80.2706 15.9453C80.4987 16.0506 80.7795 16.1032 81.113 16.1032Z" fill="#33373B"/>
<path d="M91.2598 22C90.7333 22 90.2273 21.9181 89.7417 21.7543C89.262 21.5905 88.8291 21.3536 88.443 21.0435C88.0569 20.7393 87.7411 20.3708 87.4953 19.9379L89.4434 18.9726C89.6247 19.3178 89.8792 19.5723 90.2068 19.7361C90.5403 19.9057 90.8942 19.9905 91.2686 19.9905C91.7073 19.9905 92.0993 19.9116 92.4444 19.7536C92.7896 19.6015 93.0557 19.3734 93.2429 19.0692C93.436 18.7708 93.5266 18.3964 93.5149 17.946V15.2521H93.7782V8.04786H95.6297V17.9811C95.6297 18.2209 95.618 18.4491 95.5946 18.6655C95.5771 18.8878 95.5449 19.1043 95.4981 19.3149C95.3577 19.9291 95.0886 20.4322 94.6908 20.8242C94.293 21.222 93.7987 21.5174 93.2078 21.7104C92.6228 21.9035 91.9735 22 91.2598 22ZM91.0755 17.788C90.2039 17.788 89.4434 17.5687 88.794 17.1299C88.1447 16.6912 87.6416 16.0945 87.2848 15.3398C86.9279 14.5852 86.7495 13.734 86.7495 12.7863C86.7495 11.8269 86.9279 10.9728 87.2848 10.224C87.6474 9.4694 88.1593 8.87563 88.8204 8.44273C89.4814 8.00399 90.2595 7.78461 91.1545 7.78461C92.0554 7.78461 92.81 8.00399 93.4184 8.44273C94.0327 8.87563 94.4977 9.4694 94.8136 10.224C95.1295 10.9787 95.2875 11.8328 95.2875 12.7863C95.2875 13.7282 95.1295 14.5793 94.8136 15.3398C94.4977 16.0945 94.0268 16.6912 93.4009 17.1299C92.7749 17.5687 91.9998 17.788 91.0755 17.788ZM91.4002 15.8926C91.9676 15.8926 92.4239 15.7639 92.7691 15.5065C93.1201 15.2433 93.3745 14.8777 93.5325 14.4097C93.6963 13.9417 93.7782 13.4006 93.7782 12.7863C93.7782 12.1662 93.6963 11.6251 93.5325 11.163C93.3745 10.695 93.1259 10.3323 92.7866 10.0749C92.4473 9.81162 92.0086 9.68 91.4704 9.68C90.9029 9.68 90.435 9.8204 90.0664 10.1012C89.6979 10.3761 89.4258 10.7505 89.2503 11.2244C89.0748 11.6924 88.9871 12.213 88.9871 12.7863C88.9871 13.3655 89.0719 13.892 89.2416 14.3658C89.4171 14.8338 89.6832 15.2053 90.0401 15.4802C90.3969 15.7552 90.8503 15.8926 91.4002 15.8926Z" fill="#33373B"/>
<path d="M101.521 17.788C100.562 17.788 99.7196 17.5804 98.9942 17.165C98.2688 16.7497 97.7014 16.1734 97.2919 15.4363C96.8882 14.6993 96.6864 13.851 96.6864 12.8916C96.6864 11.8562 96.8853 10.9582 97.2831 10.1977C97.6809 9.43137 98.2337 8.8376 98.9416 8.41641C99.6494 7.99521 100.468 7.78461 101.399 7.78461C102.381 7.78461 103.215 8.01569 103.899 8.47783C104.59 8.93413 105.102 9.58055 105.435 10.4171C105.768 11.2536 105.894 12.2393 105.812 13.3742H103.715V12.602C103.709 11.5725 103.528 10.8207 103.171 10.3469C102.814 9.87304 102.253 9.63612 101.486 9.63612C100.62 9.63612 99.977 9.90522 99.5558 10.4434C99.1346 10.9758 98.924 11.7567 98.924 12.7863C98.924 13.7457 99.1346 14.4887 99.5558 15.0152C99.977 15.5416 100.591 15.8049 101.399 15.8049C101.919 15.8049 102.367 15.6908 102.741 15.4627C103.121 15.2287 103.414 14.8923 103.619 14.4536L105.707 15.0854C105.344 15.9394 104.783 16.6034 104.022 17.0773C103.268 17.5511 102.434 17.788 101.521 17.788ZM98.2571 13.3742V11.7772H104.777V13.3742H98.2571Z" fill="#33373B"/>
<mask id="mask0_2_56" style="mask-type:alpha" maskUnits="userSpaceOnUse" x="21" y="4" width="85" height="18">
<path d="M21.7588 17.5248V4.88889H23.8735V10.2065H29.858V4.88889H31.964V17.5248H29.858V12.1896H23.8735V17.5248H21.7588Z" fill="#9DB7FF"/>
<path d="M37.7323 17.788C36.7846 17.788 35.9569 17.5745 35.249 17.1475C34.5412 16.7204 33.9913 16.1325 33.5993 15.3837C33.2132 14.6291 33.0202 13.7633 33.0202 12.7863C33.0202 11.7918 33.2191 10.9202 33.6169 10.1714C34.0147 9.4226 34.5675 8.8376 35.2753 8.41641C35.9832 7.99521 36.8022 7.78461 37.7323 7.78461C38.6859 7.78461 39.5166 7.99814 40.2244 8.42518C40.9322 8.85223 41.4821 9.44307 41.8741 10.1977C42.266 10.9465 42.462 11.8094 42.462 12.7863C42.462 13.7691 42.2631 14.6378 41.8653 15.3925C41.4734 16.1413 40.9235 16.7292 40.2156 17.1562C39.5078 17.5774 38.68 17.788 37.7323 17.788ZM37.7323 15.8049C38.5747 15.8049 39.2006 15.5241 39.6101 14.9625C40.0196 14.4009 40.2244 13.6755 40.2244 12.7863C40.2244 11.8679 40.0167 11.1366 39.6014 10.5926C39.186 10.0427 38.563 9.76775 37.7323 9.76775C37.1649 9.76775 36.6969 9.89644 36.3283 10.1538C35.9656 10.4054 35.6965 10.7593 35.521 11.2156C35.3455 11.6661 35.2578 12.1896 35.2578 12.7863C35.2578 13.7048 35.4655 14.4389 35.8808 14.9888C36.302 15.5329 36.9192 15.8049 37.7323 15.8049Z" fill="#9DB7FF"/>
<path d="M54.899 17.5248V11.7684C54.899 11.1191 54.7381 10.6131 54.4163 10.2504C54.0946 9.88182 53.6588 9.69755 53.1089 9.69755C52.7696 9.69755 52.4654 9.77652 52.1963 9.93447C51.9272 10.0866 51.7137 10.3147 51.5557 10.6189C51.3978 10.9173 51.3188 11.2741 51.3188 11.6895L50.3799 11.1366C50.374 10.4814 50.5203 9.90522 50.8186 9.40797C51.1228 8.90488 51.5323 8.51293 52.0471 8.23213C52.5619 7.95134 53.1352 7.81094 53.767 7.81094C54.8141 7.81094 55.6156 8.12683 56.1713 8.75863C56.7329 9.38457 57.0137 10.2094 57.0137 11.2332V17.5248H54.899ZM43.5003 17.5248V8.04786H45.3694V10.9875H45.6326V17.5248H43.5003ZM49.2128 17.5248V11.7948C49.2128 11.1337 49.0519 10.6189 48.7302 10.2504C48.4084 9.88182 47.9697 9.69755 47.4139 9.69755C46.8757 9.69755 46.4428 9.88182 46.1152 10.2504C45.7935 10.6189 45.6326 11.0986 45.6326 11.6895L44.6849 11.0577C44.6849 10.4434 44.837 9.89059 45.1412 9.3992C45.4454 8.9078 45.8549 8.52171 46.3697 8.24091C46.8904 7.95426 47.4724 7.81094 48.1159 7.81094C48.8238 7.81094 49.4146 7.96304 49.8885 8.26723C50.3682 8.56558 50.725 8.97508 50.959 9.49572C51.1989 10.0105 51.3188 10.5926 51.3188 11.2419V17.5248H49.2128Z" fill="#9DB7FF"/>
<path d="M62.5792 17.788C61.6198 17.788 60.7774 17.5804 60.052 17.165C59.3266 16.7497 58.7592 16.1734 58.3497 15.4363C57.946 14.6993 57.7442 13.851 57.7442 12.8916C57.7442 11.8562 57.9431 10.9582 58.3409 10.1977C58.7387 9.43137 59.2915 8.8376 59.9994 8.41641C60.7072 7.99521 61.5262 7.78461 62.4564 7.78461C63.4392 7.78461 64.2728 8.01569 64.9572 8.47783C65.6475 8.93413 66.1594 9.58055 66.4928 10.4171C66.8263 11.2536 66.952 12.2393 66.8701 13.3742H64.7729V12.602C64.7671 11.5725 64.5857 10.8207 64.2289 10.3469C63.8721 9.87304 63.3105 9.63612 62.5441 9.63612C61.6783 9.63612 61.0348 9.90522 60.6136 10.4434C60.1924 10.9758 59.9818 11.7567 59.9818 12.7863C59.9818 13.7457 60.1924 14.4887 60.6136 15.0152C61.0348 15.5416 61.6491 15.8049 62.4564 15.8049C62.977 15.8049 63.4245 15.6908 63.7989 15.4627C64.1792 15.2287 64.4717 14.8923 64.6764 14.4536L66.7649 15.0854C66.4022 15.9394 65.8406 16.6034 65.0801 17.0773C64.3254 17.5511 63.4918 17.788 62.5792 17.788ZM59.3149 13.3742V11.7772H65.8347V13.3742H59.3149Z" fill="#9DB7FF"/>
<path d="M67.9506 17.5248V4.88889H73.1716C73.2945 4.88889 73.4524 4.89474 73.6455 4.90644C73.8385 4.91229 74.017 4.92984 74.1808 4.95909C74.912 5.07023 75.5146 5.31301 75.9884 5.6874C76.4681 6.0618 76.822 6.53565 77.0502 7.10894C77.2842 7.67639 77.4012 8.30818 77.4012 9.00433C77.4012 9.69462 77.2842 10.3264 77.0502 10.8997C76.8162 11.4672 76.4593 11.9381 75.9796 12.3125C75.5058 12.6869 74.9062 12.9296 74.1808 13.0408C74.017 13.0642 73.8356 13.0817 73.6367 13.0934C73.4437 13.1051 73.2886 13.111 73.1716 13.111H70.0653V17.5248H67.9506ZM70.0653 11.1366H73.0839C73.2009 11.1366 73.3325 11.1308 73.4788 11.1191C73.625 11.1074 73.7596 11.084 73.8824 11.0489C74.2334 10.9611 74.5084 10.8061 74.7073 10.5838C74.912 10.3615 75.0553 10.11 75.1372 9.82917C75.225 9.54837 75.2689 9.27342 75.2689 9.00433C75.2689 8.73523 75.225 8.46028 75.1372 8.17948C75.0553 7.89284 74.912 7.63836 74.7073 7.41606C74.5084 7.19377 74.2334 7.03874 73.8824 6.95099C73.7596 6.91589 73.625 6.89542 73.4788 6.88957C73.3325 6.87787 73.2009 6.87202 73.0839 6.87202H70.0653V11.1366Z" fill="#9DB7FF"/>
<path d="M80.6918 17.788C80.0073 17.788 79.4282 17.6593 78.9543 17.4019C78.4805 17.1387 78.1207 16.7906 77.875 16.3577C77.6352 15.9248 77.5152 15.448 77.5152 14.9274C77.5152 14.4711 77.5913 14.0616 77.7434 13.6989C77.8955 13.3304 78.1295 13.0145 78.4454 12.7512C78.7613 12.4821 79.1708 12.2628 79.6739 12.0931C80.0541 11.9703 80.4987 11.8591 81.0077 11.7597C81.5225 11.6602 82.0782 11.5695 82.6749 11.4876C83.2774 11.3999 83.9063 11.3063 84.5615 11.2068L83.8069 11.6368C83.8127 10.9816 83.6665 10.499 83.3681 10.1889C83.0698 9.8789 82.5667 9.72387 81.8588 9.72387C81.4318 9.72387 81.0194 9.82332 80.6216 10.0222C80.2238 10.2211 79.9459 10.5633 79.7879 11.0489L77.8575 10.4434C78.0915 9.64197 78.5361 8.99848 79.1912 8.51293C79.8523 8.02738 80.7415 7.78461 81.8588 7.78461C82.7012 7.78461 83.4412 7.92209 84.0789 8.19703C84.7224 8.47198 85.1992 8.92243 85.5092 9.54837C85.6788 9.88182 85.7812 10.224 85.8163 10.575C85.8514 10.9202 85.869 11.2975 85.869 11.707V17.5248H84.0175V15.4714L84.3246 15.8049C83.8975 16.4893 83.3974 16.9924 82.8241 17.3142C82.2566 17.6301 81.5459 17.788 80.6918 17.788ZM81.113 16.1032C81.5927 16.1032 82.0022 16.0184 82.3414 15.8488C82.6807 15.6791 82.9498 15.4714 83.1487 15.2258C83.3535 14.9801 83.491 14.749 83.5612 14.5325C83.6723 14.2634 83.7337 13.9563 83.7454 13.6112C83.763 13.2602 83.7718 12.9764 83.7718 12.76L84.4211 12.953C83.7835 13.0525 83.2365 13.1402 82.7802 13.2163C82.3239 13.2923 81.932 13.3655 81.6044 13.4357C81.2768 13.5 80.9872 13.5731 80.7356 13.655C80.4899 13.7428 80.2823 13.8452 80.1126 13.9622C79.943 14.0792 79.8113 14.2137 79.7177 14.3658C79.63 14.5179 79.5861 14.6963 79.5861 14.9011C79.5861 15.1351 79.6446 15.3427 79.7616 15.5241C79.8786 15.6996 80.0483 15.84 80.2706 15.9453C80.4987 16.0506 80.7795 16.1032 81.113 16.1032Z" fill="#9DB7FF"/>
<path d="M91.2598 22C90.7333 22 90.2273 21.9181 89.7417 21.7543C89.262 21.5905 88.8291 21.3536 88.443 21.0435C88.0569 20.7393 87.7411 20.3708 87.4953 19.9379L89.4434 18.9726C89.6247 19.3178 89.8792 19.5723 90.2068 19.7361C90.5403 19.9057 90.8942 19.9905 91.2686 19.9905C91.7073 19.9905 92.0993 19.9116 92.4444 19.7536C92.7896 19.6015 93.0557 19.3734 93.2429 19.0692C93.436 18.7708 93.5266 18.3964 93.5149 17.946V15.2521H93.7782V8.04786H95.6297V17.9811C95.6297 18.2209 95.618 18.4491 95.5946 18.6655C95.5771 18.8878 95.5449 19.1043 95.4981 19.3149C95.3577 19.9291 95.0886 20.4322 94.6908 20.8242C94.293 21.222 93.7987 21.5174 93.2078 21.7104C92.6228 21.9035 91.9735 22 91.2598 22ZM91.0755 17.788C90.2039 17.788 89.4434 17.5687 88.794 17.1299C88.1447 16.6912 87.6416 16.0945 87.2848 15.3398C86.9279 14.5852 86.7495 13.734 86.7495 12.7863C86.7495 11.8269 86.9279 10.9728 87.2848 10.224C87.6474 9.4694 88.1593 8.87563 88.8204 8.44273C89.4814 8.00399 90.2595 7.78461 91.1545 7.78461C92.0554 7.78461 92.81 8.00399 93.4184 8.44273C94.0327 8.87563 94.4977 9.4694 94.8136 10.224C95.1295 10.9787 95.2875 11.8328 95.2875 12.7863C95.2875 13.7282 95.1295 14.5793 94.8136 15.3398C94.4977 16.0945 94.0268 16.6912 93.4009 17.1299C92.7749 17.5687 91.9998 17.788 91.0755 17.788ZM91.4002 15.8926C91.9676 15.8926 92.4239 15.7639 92.7691 15.5065C93.1201 15.2433 93.3745 14.8777 93.5325 14.4097C93.6963 13.9417 93.7782 13.4006 93.7782 12.7863C93.7782 12.1662 93.6963 11.6251 93.5325 11.163C93.3745 10.695 93.1259 10.3323 92.7866 10.0749C92.4473 9.81162 92.0086 9.68 91.4704 9.68C90.9029 9.68 90.435 9.8204 90.0664 10.1012C89.6979 10.3761 89.4258 10.7505 89.2503 11.2244C89.0748 11.6924 88.9871 12.213 88.9871 12.7863C88.9871 13.3655 89.0719 13.892 89.2416 14.3658C89.4171 14.8338 89.6832 15.2053 90.0401 15.4802C90.3969 15.7552 90.8503 15.8926 91.4002 15.8926Z" fill="#9DB7FF"/>
<path d="M101.521 17.788C100.562 17.788 99.7196 17.5804 98.9942 17.165C98.2688 16.7497 97.7014 16.1734 97.2919 15.4363C96.8882 14.6993 96.6864 13.851 96.6864 12.8916C96.6864 11.8562 96.8853 10.9582 97.2831 10.1977C97.6809 9.43137 98.2337 8.8376 98.9416 8.41641C99.6494 7.99521 100.468 7.78461 101.399 7.78461C102.381 7.78461 103.215 8.01569 103.899 8.47783C104.59 8.93413 105.102 9.58055 105.435 10.4171C105.768 11.2536 105.894 12.2393 105.812 13.3742H103.715V12.602C103.709 11.5725 103.528 10.8207 103.171 10.3469C102.814 9.87304 102.253 9.63612 101.486 9.63612C100.62 9.63612 99.977 9.90522 99.5558 10.4434C99.1346 10.9758 98.924 11.7567 98.924 12.7863C98.924 13.7457 99.1346 14.4887 99.5558 15.0152C99.977 15.5416 100.591 15.8049 101.399 15.8049C101.919 15.8049 102.367 15.6908 102.741 15.4627C103.121 15.2287 103.414 14.8923 103.619 14.4536L105.707 15.0854C105.344 15.9394 104.783 16.6034 104.022 17.0773C103.268 17.5511 102.434 17.788 101.521 17.788ZM98.2571 13.3742V11.7772H104.777V13.3742H98.2571Z" fill="#9DB7FF"/>
</mask>
<g mask="url(#mask0_2_56)">
<rect x="18.7031" y="-1.22223" width="48.2778" height="28.7222" fill="#B072FF"/>
</g>
</svg>
